<svg width="56" height="48" viewBox="0 0 56 48" fill="none" xmlns="http://www.w3.org/2000/svg">
<path d="M3.14681 28.3907L3.05939 28.3716L40.5321 28.3716L28.752 40.1775C28.1752 40.7539 27.8588 41.5348 27.8588 42.3543C27.8588 43.1738 28.1752 43.9491 28.752 44.5269L30.585 46.3608C31.1614 46.9372 31.9295 47.2559 32.7485 47.2559C33.568 47.2559 34.3366 46.9394 34.9129 46.363L55.1062 26.1716C55.6849 25.593 56.0013 24.8222 55.999 24.0022C56.0013 23.1777 55.6849 22.4064 55.1062 21.8287L34.913 1.63543C34.3366 1.0595 33.5685 0.74262 32.7485 0.74262C31.9295 0.74262 31.1614 1.05995 30.585 1.63543L28.752 3.46932C28.1752 4.0448 27.8588 4.81332 27.8588 5.63283C27.8588 6.45189 28.1752 7.17989 28.752 7.75582L40.665 19.6278L3.10492 19.6278C1.41718 19.6278 -0.00103149 21.0825 -0.00103164 22.7693L-0.00103187 25.363C-0.00103202 27.0499 1.45907 28.3907 3.14681 28.3907Z" fill="white"/>
</svg>
