<svg width="62" height="62" viewBox="0 0 62 62" fill="none" xmlns="http://www.w3.org/2000/svg">
<path fill-rule="evenodd" clip-rule="evenodd" d="M38.3687 31.0001L60.474 8.89484C62.5088 6.86002 62.5088 3.56093 60.474 1.52641C58.4391 -0.508414 55.1403 -0.508414 53.1055 1.52641L30.9999 23.632L8.89433 1.52611C6.85951 -0.508705 3.56072 -0.508705 1.5259 1.52611C-0.508632 3.56093 -0.508632 6.86002 1.5259 8.89455L23.6315 30.9999L1.5259 53.1054C-0.508632 55.1403 -0.508632 58.4394 1.5259 60.4739C3.56072 62.5087 6.85951 62.5087 8.89433 60.4739L30.9999 38.3683L53.1055 60.4739C55.1401 62.5087 58.4391 62.5087 60.474 60.4739C62.5088 58.4391 62.5088 55.1403 60.474 53.1054L38.3687 31.0001Z" fill="white"/>
</svg>
