<svg width="494" height="241" viewBox="0 0 494 241" fill="none" xmlns="http://www.w3.org/2000/svg">
<path d="M218.842 0.81437H227.86V32.5883L247.198 0.81437H256.802V48.5404H247.784V17.385L228.479 48.5404H218.842V0.81437ZM264.701 24.9704C264.701 20.1088 265.428 16.0286 266.882 12.7296C267.968 10.2988 269.449 8.11762 271.326 6.18599C273.204 4.25437 275.26 2.82195 277.495 1.88869C280.469 0.629884 283.898 0.000488281 287.783 0.000488281C294.815 0.000488281 300.442 2.18167 304.663 6.5441C308.884 10.9065 310.995 16.9726 310.995 24.7425C310.995 32.4473 308.9 38.4754 304.712 42.827C300.523 47.1785 294.923 49.3543 287.913 49.3543C280.816 49.3543 275.173 47.1894 270.984 42.8595C266.796 38.5296 264.701 32.5667 264.701 24.9704ZM274.631 24.6448C274.631 30.049 275.879 34.1455 278.374 36.9345C280.87 39.7234 284.039 41.1178 287.881 41.1178C291.722 41.1178 294.875 39.7342 297.338 36.967C299.801 34.1998 301.033 30.049 301.033 24.5146C301.033 19.0453 299.834 14.9651 297.436 12.2738C295.037 9.58258 291.852 8.23697 287.881 8.23697C283.909 8.23697 280.708 9.59886 278.277 12.3227C275.846 15.0465 274.631 19.1538 274.631 24.6448ZM325.266 48.5404V8.88808H311.104V0.81437H349.031V8.88808H334.902V48.5404H325.266ZM355.27 48.5404V0.81437H390.658V8.88808H364.907V19.4685H388.867V27.5097H364.907V40.4993H391.569V48.5404H355.27ZM398.591 0.81437H408.227V21.1289C410.376 20.9118 411.83 20.3584 412.59 19.4685C413.349 18.5787 414.521 16.1045 416.106 12.0459C418.103 6.88048 420.11 3.66839 422.129 2.40958C424.125 1.15077 427.348 0.521373 431.797 0.521373C432.014 0.521373 432.481 0.510521 433.197 0.488818V7.61842L431.83 7.58587C429.855 7.58587 428.412 7.83003 427.5 8.31836C426.589 8.80669 425.851 9.55003 425.286 10.5484C424.722 11.5468 423.887 13.5977 422.78 16.7013C422.194 18.3508 421.559 19.729 420.875 20.8359C420.191 21.9428 418.982 22.9845 417.245 23.9612C419.394 24.5689 421.168 25.7951 422.568 27.6399C423.968 29.4847 425.503 32.0891 427.175 35.4532L433.686 48.5404H422.356L416.659 36.202C416.572 36.0283 416.388 35.6919 416.106 35.1927C415.997 35.0191 415.596 34.2704 414.901 32.9464C413.664 30.6024 412.65 29.1375 411.857 28.5515C411.065 27.9655 409.855 27.6616 408.227 27.6399V48.5404H398.591V0.81437ZM482.182 48.5404H471.699L467.532 37.6995H448.454L444.515 48.5404H434.293L452.882 0.81437H463.072L482.182 48.5404ZM464.439 29.6584L457.863 11.9483L451.417 29.6584H464.439Z" fill="#000105"/>
<path d="M248.506 129.015V81.2886H283.014V86.9206H254.822V101.538H281.224V107.137H254.822V123.383H284.121V129.015H248.506ZM293.074 129.015V81.2886H299.39V100.887H324.197V81.2886H330.513V129.015H324.197V106.519H299.39V129.015H293.074ZM342.512 81.2886H348.242V119.085L373.635 81.2886H379.983V129.015H374.253V91.3156L348.828 129.015H342.512V81.2886ZM390.564 129.015V81.2886H396.879V100.887H421.686V81.2886H428.002V129.015H421.686V106.519H396.879V129.015H390.564ZM434.662 129.015L452.991 81.2886H459.795L479.328 129.015H472.133L466.566 114.56H446.61L441.369 129.015H434.662ZM448.433 109.416H464.613L459.632 96.1989C458.113 92.1837 456.984 88.8848 456.246 86.3021C455.639 89.3623 454.781 92.4008 453.675 95.4176L448.433 109.416Z" fill="#000105"/>
<path d="M0.783737 120.306H3.5595V132.797L11.2545 120.306H14.2462V136.683H11.4704V124.269L3.7754 136.683H0.783737V120.306ZM18.5332 120.306H22.8511L27.1535 133.414L31.934 120.306H35.928V136.683H33.1522V123.498L28.3101 136.683H25.8273L21.2473 122.866V136.683H18.5332V120.306ZM38.4532 136.683V133.521H41.6145V136.683H38.4532ZM55.5087 136.683V114.076H63.9902C65.7173 114.076 67.1026 114.304 68.1461 114.762C69.1896 115.219 70.0069 115.924 70.598 116.875C71.1892 117.826 71.4847 118.82 71.4847 119.859C71.4847 120.825 71.2226 121.735 70.6983 122.588C70.174 123.441 69.3824 124.13 68.3235 124.654C69.6908 125.055 70.742 125.739 71.477 126.705C72.2121 127.672 72.5796 128.813 72.5796 130.129C72.5796 131.188 72.356 132.172 71.9088 133.082C71.4616 133.992 70.909 134.693 70.2511 135.187C69.5931 135.68 68.7681 136.053 67.776 136.305C66.7839 136.557 65.5683 136.683 64.129 136.683H55.5087ZM58.5003 123.575H63.3888C64.715 123.575 65.6659 123.488 66.2416 123.313C67.0024 123.087 67.5755 122.711 67.9611 122.187C68.3466 121.663 68.5393 121.005 68.5393 120.213C68.5393 119.463 68.3594 118.802 67.9996 118.232C67.6398 117.661 67.1258 117.27 66.4575 117.06C65.7893 116.849 64.643 116.744 63.0187 116.744H58.5003V123.575ZM58.5003 134.015H64.129C65.0953 134.015 65.7739 133.979 66.1645 133.907C66.8533 133.784 67.429 133.578 67.8917 133.29C68.3543 133.002 68.7347 132.583 69.0328 132.033C69.331 131.483 69.48 130.849 69.48 130.129C69.48 129.286 69.2641 128.553 68.8323 127.931C68.4006 127.309 67.8017 126.872 67.0358 126.621C66.2699 126.369 65.1673 126.243 63.728 126.243H58.5003V134.015ZM74.0109 136.683V133.521H77.1722V136.683H74.0109ZM81.8022 114.076H84.5163V131.979L96.5446 114.076H99.5517V136.683H96.8376V118.825L84.7939 136.683H81.8022V114.076ZM103.026 136.683V133.521H106.188V136.683H103.026Z" fill="#000105"/>
<path fill-rule="evenodd" clip-rule="evenodd" d="M236.402 143.28H225.457L173.004 2.49658H183.948L236.402 143.28Z" fill="black"/>
<path fill-rule="evenodd" clip-rule="evenodd" d="M120.593 143.281H131.537L183.991 2.49805H173.047L120.593 143.281Z" fill="black"/>
<path d="M0.824066 0.814941H36.5047V8.82354H10.4604V19.8923H23.3523C26.9117 19.8923 29.8634 20.3264 32.2074 21.1945C34.5514 22.0627 36.5535 23.6687 38.2138 26.0127C39.8741 28.3567 40.7043 31.1022 40.7043 34.2492C40.7043 37.4831 39.8687 40.2502 38.1975 42.5508C36.5264 44.8514 34.6219 46.4249 32.4841 47.2713C30.3463 48.1178 27.3024 48.541 23.3523 48.541H0.824066V0.814941ZM10.4604 40.5324H19.8364C22.8315 40.5324 24.9367 40.3859 26.1521 40.0929C27.3675 39.7999 28.4255 39.1325 29.3262 38.0907C30.2269 37.049 30.6773 35.7685 30.6773 34.2492C30.6773 32.0354 29.8905 30.424 28.317 29.4148C26.7435 28.4055 24.0577 27.9009 20.2596 27.9009H10.4604V40.5324ZM48.7013 0.814941H57.7191V32.5889L77.0569 0.814941H86.6607V48.541H77.6429V17.3856L58.3376 48.541H48.7013V0.814941ZM96.7087 0.814941H132.389V8.82354H106.345V19.8923H119.237C122.796 19.8923 125.748 20.3264 128.092 21.1945C130.436 22.0627 132.438 23.6687 134.098 26.0127C135.759 28.3567 136.589 31.1022 136.589 34.2492C136.589 37.4831 135.753 40.2502 134.082 42.5508C132.411 44.8514 130.507 46.4249 128.369 47.2713C126.231 48.1178 123.187 48.541 119.237 48.541H96.7087V0.814941ZM106.345 40.5324H115.721C118.716 40.5324 120.821 40.3859 122.037 40.0929C123.252 39.7999 124.31 39.1325 125.211 38.0907C126.112 37.049 126.562 35.7685 126.562 34.2492C126.562 32.0354 125.775 30.424 124.202 29.4148C122.628 28.4055 119.942 27.9009 116.144 27.9009H106.345V40.5324Z" fill="#000105"/>
<mask id="mask0" mask-type="alpha" maskUnits="userSpaceOnUse" x="0" y="154" width="494" height="87">
<path d="M0 154.425H494V240.774H0V154.425Z" fill="white"/>
</mask>
<g mask="url(#mask0)">
<path fill-rule="evenodd" clip-rule="evenodd" d="M206.29 240.81L238.475 154.426H195.133L162.948 240.81H206.29Z" fill="#D8232A"/>
<path fill-rule="evenodd" clip-rule="evenodd" d="M494.002 158.545H242.571L244.1 154.451H494.002" fill="#000105"/>
<path fill-rule="evenodd" clip-rule="evenodd" d="M0 154.45V158.544L120.869 158.519L151.581 240.809H162.948L130.763 154.425" fill="#000105"/>
</g>
</svg>
