<svg width="62" height="60" viewBox="0 0 62 60" fill="none" xmlns="http://www.w3.org/2000/svg">
<path d="M61.998 41.8339C61.998 39.9364 60.5443 38.4017 58.7385 38.4017C56.9481 38.4061 55.4769 39.9364 55.4769 41.8339V48.9387L42.3209 35.7762C41.0486 34.5017 38.9892 34.5017 37.7169 35.7762C36.4446 37.0485 36.4446 39.1144 37.7169 40.3867L50.8095 53.4749H43.7375C41.8115 53.4793 40.2594 54.9374 40.2594 56.7344C40.2594 58.5358 41.8115 59.9917 43.7375 59.9917H58.5177C60.4437 59.9917 61.9937 58.5379 62.0002 56.7344C61.9937 56.6863 61.9871 56.6492 61.9805 56.6011C61.9871 56.5398 62.0002 56.4743 62.0002 56.4109V41.8339H61.998Z" fill="white"/>
<path d="M19.675 35.7759L6.52553 48.9385V41.8336C6.52553 39.9361 5.05647 38.4058 3.26167 38.4014C1.46032 38.4014 0.00437222 39.9361 0.00437222 41.8336L0 56.4128C0 56.4762 0.0174889 56.5418 0.0218611 56.603C0.0174889 56.6489 0.00874443 56.686 0.00437222 56.7363C0.00874443 58.5399 1.56088 59.9936 3.48466 59.9936H18.2671C20.1887 59.9936 21.743 58.5377 21.743 56.7363C21.743 54.9393 20.1887 53.4812 18.2671 53.4768H11.1951L24.2877 40.3886C25.5556 39.1163 25.5556 37.0504 24.2877 35.7781C23.0132 34.5014 20.9517 34.5014 19.675 35.7759Z" fill="white"/>
<path d="M42.3209 24.2133L55.4769 11.0595V18.1644C55.4769 20.0554 56.9481 21.5856 58.7385 21.5922C60.5443 21.5922 61.998 20.0554 61.998 18.1644V3.58084C61.998 3.51745 61.9849 3.45186 61.9784 3.39503C61.9849 3.34912 61.9915 3.3054 61.998 3.25949C61.9915 1.45376 60.4415 0 58.5177 0H43.7375C41.8115 0 40.2594 1.45376 40.2594 3.25949C40.2594 5.05428 41.8115 6.51679 43.7375 6.52116H50.8095L37.7169 19.6094C36.4446 20.8795 36.4446 22.941 37.7169 24.2111C38.9892 25.4922 41.0486 25.4922 42.3209 24.2133Z" fill="white"/>
<path d="M11.1951 6.52116H18.2649C20.1865 6.51679 21.7408 5.05428 21.7408 3.25949C21.7408 1.45376 20.1865 0 18.2649 0H3.48466C1.56088 0 0.00874443 1.45376 0.00437222 3.25949C0.00874443 3.3054 0.0174889 3.34912 0.0218611 3.39503C0.0174889 3.45186 0 3.51526 0 3.58084L0.00437222 18.1666C0.00437222 20.0575 1.46032 21.5944 3.26167 21.5944C5.05647 21.5878 6.52553 20.0575 6.52553 18.1666V11.0617L19.675 24.2133C20.9517 25.4922 23.0132 25.4922 24.2877 24.2133C25.5556 22.9432 25.5556 20.8817 24.2877 19.6116L11.1951 6.52116Z" fill="white"/>
</svg>
