<svg width="77" height="86" viewBox="0 0 77 86" fill="none" xmlns="http://www.w3.org/2000/svg">
<path d="M76.0638 43.3035C75.9354 42.6045 75.5136 42.0158 74.9085 41.6479C60.9718 33.3147 52.7932 31.5855 46.8151 30.3345C46.0449 30.169 45.2931 30.0218 44.5779 29.8563L41.9923 8.53561C41.9006 3.82631 38.0497 0 33.3369 0C28.6791 0 24.9199 3.60556 24.6815 8.24128C24.6815 8.33326 24.6632 8.40685 24.6632 8.49882V21.0447L24.4615 51.6736L21.1607 49.1166C20.5188 48.5647 16.0445 44.9408 10.5065 44.9408C6.76557 44.9408 3.44645 46.5228 0.640779 49.6133C-0.147742 50.4779 -0.221093 51.7656 0.457402 52.7221C0.695793 53.0533 6.38048 61.037 15.2926 69.1679C20.5739 73.9692 25.8918 77.8139 31.0997 80.5917C37.738 84.1236 44.2295 85.9448 50.4093 86C50.501 86 50.611 86 50.7027 86C59.1381 86 65.7029 83.2038 70.214 77.7035C80.2631 65.452 76.2288 44.2049 76.0638 43.3035ZM66.3814 74.5763C62.8606 78.8809 57.5793 81.0516 50.7027 81.0516C50.611 81.0516 50.5377 81.0516 50.446 81.0516C38.1781 80.9596 26.4053 72.5895 18.7034 65.5807C12.5603 59.9884 7.92085 54.3594 5.79367 51.6C7.24235 50.4779 8.80106 49.926 10.5248 49.926C14.5041 49.926 17.9516 52.8877 17.9699 52.9245C18.0066 52.9613 18.0616 52.9981 18.0983 53.0349L25.415 58.6824C26.1669 59.2526 27.1571 59.363 28.019 58.9399C28.8625 58.5352 29.3943 57.6706 29.4126 56.7324L29.651 21.0815V8.66438C29.651 8.64599 29.651 8.6092 29.651 8.5908C29.706 6.56727 31.3381 4.98524 33.3552 4.98524C35.4091 4.98524 37.0595 6.65925 37.0595 8.70118C37.0595 8.79315 37.0595 8.90353 37.0778 8.99551L39.8468 32.1557C39.9752 33.1675 40.6903 33.9953 41.6622 34.2528C42.9825 34.6024 44.3395 34.8967 45.7882 35.191C51.5829 36.4051 58.7713 37.932 71.3876 45.3271C72.0111 49.5949 73.7899 65.544 66.3814 74.5763Z" fill="white"/>
</svg>
